<?xml version="1.0" encoding="utf-8" ?><svg xmlns="http://www.w3.org/2000/svg" xmlns:xlink="http://www.w3.org/1999/xlink" width="1254" height="1254" viewBox="0 0 1254 1254"><defs><linearGradient id="gradient_0" gradientUnits="userSpaceOnUse" x1="372.87161" y1="974.00555" x2="690.65369" y2="511.89618"><stop offset="0" stop-color="#BD8028"/><stop offset="1" stop-color="#E1A745"/></linearGradient></defs><path fill="url(#gradient_0)" d="M382.772 202.274C390.638 196.01 410.641 184.671 419.741 179.721C497.473 137.437 595.529 119.579 683.301 129.482C802.5 142.974 911.341 203.611 985.546 297.867C1015.07 334.929 1038.66 376.345 1055.49 420.638C1060.32 433.476 1063.57 445.252 1067.85 457.971L1066.62 458.565C1058.11 431.188 1044.35 402.083 1029.72 377.46C989.026 308.054 929.718 251.425 858.506 213.984C757.546 160.798 645.71 152.596 536.996 186.489C427.567 219.715 336.218 295.771 283.715 397.37C264.259 435.02 250.227 475.234 242.036 516.816C239.857 527.618 239.031 539.375 236.99 549.445C234.902 577.977 233.466 602.418 235.943 631.316C243.662 721.364 280.845 808.757 339.715 877.067C417.685 965.856 527.518 1020.32 645.389 1028.65C686.933 1031.95 728.737 1028.26 769.056 1017.71C777.347 1015.62 785.563 1013.24 793.689 1010.57C795.858 1009.86 807.151 1005.85 808.679 1005.57C812.362 1003.72 819.865 1000.98 824.097 999.256C832.871 995.753 841.497 991.892 849.954 987.683C879.802 972.878 907.811 954.627 933.409 933.301C942.463 925.721 950.468 917.774 959.272 910.084L959.64 911.106C965.691 906.562 967.015 909.429 972.752 911.142L973.404 911.993C972.706 912.844 972.306 913.294 971.523 914.066L972.696 914.34C969.468 918.938 959.724 928.968 955.62 933.109C930.283 958.912 901.735 981.352 870.678 999.878C768.692 1060.74 646.714 1078.63 531.547 1049.61C411.74 1019.32 309.006 942.404 246.194 835.981C181.099 727.875 162.101 598.171 193.459 475.937C216.714 383.551 272.063 291.044 345.615 230.189C356.052 221.553 371.139 209.232 382.772 202.274Z"/><path fill="#FACC6B" d="M382.772 202.274C390.638 196.01 410.641 184.671 419.741 179.721C497.473 137.437 595.529 119.579 683.301 129.482C802.5 142.974 911.341 203.611 985.546 297.867C1015.07 334.929 1038.66 376.345 1055.49 420.638C1060.32 433.476 1063.57 445.252 1067.85 457.971L1066.62 458.565C1058.11 431.188 1044.35 402.083 1029.72 377.46C989.026 308.054 929.718 251.425 858.506 213.984C757.546 160.798 645.71 152.596 536.996 186.489C427.567 219.715 336.218 295.771 283.715 397.37C264.259 435.02 250.227 475.234 242.036 516.816C239.857 527.618 239.031 539.375 236.99 549.445C236.256 544.658 237.867 535.272 238.635 530.076C244.463 492.489 255.208 455.832 270.592 421.046C312.1 326.023 386.952 249.477 481.023 205.853C509.539 192.676 538.274 183.064 568.882 176.091C570.612 175.697 604.454 168.904 603.348 169.524L602.77 168.826C599.476 169.481 597.068 169.025 595.559 169.329C590.172 170.414 582.33 170.987 577.237 172.213C562.515 175.757 547.041 178.859 532.536 182.983C523.021 185.688 512.405 189.891 503.189 193.499C499.561 194.919 494.919 197.563 491.115 199.203C470.284 208.182 447.401 218.822 428.671 231.55C417.371 239.229 405.42 247.425 394.838 256.001C390.503 259.515 387.868 262.936 383.028 266.506C365.047 279.77 349.153 298.145 334.709 315.138C331.549 318.855 326.145 324.639 323.762 328.548C320.884 333.268 317.906 336.682 314.774 341.077C309.458 348.555 303.826 356.111 299.025 363.927C290.76 377.382 283.322 391.335 276.071 405.326C275.888 405.545 275.705 405.764 275.522 405.983L275.255 405.833L274.102 406.814C273.963 405.991 275.408 385.271 275.701 384.382C279.504 372.832 278.777 360.58 282.064 349.231C286.583 333.624 295.261 318.711 301.829 303.915C306.244 295.44 307.893 284.269 313.059 276.322C317.184 269.975 317.509 265.344 320.432 258.833L320.793 258.041C319.914 256.685 320.453 257.273 319.173 256.277C330.708 242.654 350.296 228.91 363.894 217.252C367.861 213.85 380.97 205.976 382.772 202.274Z"/><path fill="#F0D691" d="M738.259 169.773C743.236 169.622 755.809 172.647 761.113 173.952C800.546 183.708 838.46 198.814 873.799 218.848C879.989 222.321 888.186 226.742 893.896 230.847L893.997 231.431L894.964 231.941C896.688 233.056 897.567 233.417 897.982 235.137C896.265 235.083 886.701 228.475 884.158 226.891C870.349 218.354 856.053 210.628 841.345 203.754C818.337 193.048 794.447 184.35 769.941 177.759C763.544 176.06 757.312 174.601 750.864 173.182C747.478 172.437 741.069 171.642 738.197 170.488L738.259 169.773Z"/><path fill="#F0D691" d="M275.522 405.983C275.705 405.764 275.888 405.545 276.071 405.326C283.322 391.335 290.76 377.382 299.025 363.927C303.826 356.111 309.458 348.555 314.774 341.077C317.906 336.682 320.884 333.268 323.762 328.548C326.145 324.639 331.549 318.855 334.709 315.138C349.153 298.145 365.047 279.77 383.028 266.506C387.868 262.936 390.503 259.515 394.838 256.001C405.42 247.425 417.371 239.229 428.671 231.55C447.401 218.822 470.284 208.182 491.115 199.203C494.919 197.563 499.561 194.919 503.189 193.499C512.405 189.891 523.021 185.688 532.536 182.983C547.041 178.859 562.515 175.757 577.237 172.213C582.33 170.987 590.172 170.414 595.559 169.329C597.068 169.025 599.476 169.481 602.77 168.826L603.348 169.524C604.454 168.904 570.612 175.697 568.882 176.091C538.274 183.064 509.539 192.676 481.023 205.853C386.952 249.477 312.1 326.023 270.592 421.046C255.208 455.832 244.463 492.489 238.635 530.076C237.867 535.272 236.256 544.658 236.99 549.445C234.902 577.977 233.466 602.418 235.943 631.316C243.662 721.364 280.845 808.757 339.715 877.067C417.685 965.856 527.518 1020.32 645.389 1028.65C686.933 1031.95 728.737 1028.26 769.056 1017.71C777.347 1015.62 785.563 1013.24 793.689 1010.57C795.858 1009.86 807.151 1005.85 808.679 1005.57C810.385 1005.66 810.331 1005.16 812.142 1005.54C809.077 1007.94 791.79 1012.61 786.736 1014.21C697.055 1042.7 597.847 1035.66 510.796 1000.98C400.077 958.037 311.593 871.898 265.692 762.372C225.412 667.37 220.832 561.008 252.795 462.894C256.781 450.258 262.12 437.183 267.071 424.855C269.501 418.807 272.84 412.823 275.275 406.622L275.522 405.983Z"/><defs><linearGradient id="gradient_1" gradientUnits="userSpaceOnUse" x1="509.09677" y1="766.2674" x2="491.65616" y2="525.04077"><stop offset="0" stop-color="#BF842D"/><stop offset="1" stop-color="#F7BF5B"/></linearGradient></defs><path fill="url(#gradient_1)" d="M379.463 440.33C387.047 436.494 395.964 437.102 403.836 439.632C409.217 441.592 434.23 454.891 438.503 458.319C455.878 467.185 478.82 481.384 495.781 491.718C513.216 502.341 536.868 516.003 553.425 527.568C569.651 538.005 585.713 548.695 601.604 559.634C618.073 570.949 636.925 584.259 654.258 594.07L655.216 595.131L655.082 596.685C662.392 602.997 694.671 619.441 698.467 624.685C692.126 627.335 682.37 629.001 680.231 634.272C680.063 634.694 679.9 635.118 679.742 635.544C676.627 637.777 669.268 630.374 665.128 628.89L666.911 631.69C661.637 628.43 657.054 623.544 650.922 625.485C643.227 629.66 633.498 636.634 626.213 641.703C615.39 649.339 604.444 656.8 593.381 664.083C550.245 692.08 506.227 718.694 461.394 743.884C450.556 749.99 439.68 756.027 428.765 761.996C417.902 767.946 406.704 775.389 394.043 775.972C376.745 776.768 362.368 763.41 359.288 746.928C357.452 737.105 358.075 724.886 358.067 714.665L358.12 668.289L358.348 515.323C358.304 510.263 358.206 505.139 358.278 500.082C358.595 477.668 354.501 451.519 379.463 440.33Z"/><path d="M401.474 613.283C401.855 606.786 401.71 600.327 402.608 593.917C407.765 557.102 436.302 528.989 474.761 532.634C521.729 537.085 560.343 565.641 599.378 589.447C604.709 592.732 625.827 606.188 629.339 609.296L629.255 610.098L626.584 612.09C601.282 628.577 567.127 649.779 540.399 662.65C513.156 675.309 482.591 685.936 452.28 679.626C419.348 670.235 406.344 645.144 401.474 613.283Z"/><path fill="#F5C161" d="M379.463 440.33C387.047 436.494 395.964 437.102 403.836 439.632C409.217 441.592 434.23 454.891 438.503 458.319C455.878 467.185 478.82 481.384 495.781 491.718C513.216 502.341 536.868 516.003 553.425 527.568C569.651 538.005 585.713 548.695 601.604 559.634C618.073 570.949 636.925 584.259 654.258 594.07L655.216 595.131L655.082 596.685C662.392 602.997 694.671 619.441 698.467 624.685C692.126 627.335 682.37 629.001 680.231 634.272C680.063 634.694 679.9 635.118 679.742 635.544C676.627 637.777 669.268 630.374 665.128 628.89L666.911 631.69C661.637 628.43 657.054 623.544 650.922 625.485C647.431 624.42 630.46 614.337 626.584 612.09L629.255 610.098L629.339 609.296C625.827 606.188 604.709 592.732 599.378 589.447C560.343 565.641 521.729 537.085 474.761 532.634C436.302 528.989 407.765 557.102 402.608 593.917C401.71 600.327 401.855 606.786 401.474 613.283C400.077 608.162 400.546 596.885 401.712 591.57L399.768 593.127C398.914 591.214 401.12 586.241 400.894 583.009C399.28 580.389 399.819 580.656 399.544 578.022C398.066 570.293 395.477 560.383 392.667 552.89C385.042 532.559 370.376 524.348 362.764 549.986C362.21 548.336 362.864 544.566 362.878 542.42C361.976 545.505 361.983 558.535 361.752 562.889C360.682 540.624 361.495 519.748 361.686 497.584C361.75 490.06 362.085 474.699 361.102 467.883L360.75 468.065C358.901 481.612 359.626 505.239 359.667 519.573L359.555 594.237C359.557 599.853 360.065 625.512 359.429 629.841C358.674 627.877 359.174 614.794 359.023 612.035C358.348 599.671 360.532 521.91 358.348 515.323C358.304 510.263 358.206 505.139 358.278 500.082C358.595 477.668 354.501 451.519 379.463 440.33Z"/><path fill="#9C5B0C" d="M401.712 591.57C406.929 550.834 440.347 524.031 481.238 531.187C528.796 539.509 568.676 568.7 608.674 594.003C627.84 606.242 646.106 617.16 665.128 628.89L666.911 631.69C661.637 628.43 657.054 623.544 650.922 625.485C647.431 624.42 630.46 614.337 626.584 612.09L629.255 610.098L629.339 609.296C625.827 606.188 604.709 592.732 599.378 589.447C560.343 565.641 521.729 537.085 474.761 532.634C436.302 528.989 407.765 557.102 402.608 593.917C401.71 600.327 401.855 606.786 401.474 613.283C400.077 608.162 400.546 596.885 401.712 591.57Z"/><path fill="#FACC6B" d="M553.425 527.568L552.043 528.462C547.707 528.109 536.435 520.127 532.767 517.294L534.248 517.79C529.629 512.799 457.202 469.242 453.85 468.844C453.384 470.195 453.641 469.597 453.124 470.656C448.43 468.145 447.387 466.335 444.032 462.677C443.678 462.291 439.054 459.711 438.297 459.288L438.503 458.319C455.878 467.185 478.82 481.384 495.781 491.718C513.216 502.341 536.868 516.003 553.425 527.568Z"/><path fill="#FACC6B" d="M379.463 440.33C387.047 436.494 395.964 437.102 403.836 439.632C396.857 440.451 386.331 441.505 379.463 440.33Z"/><path fill="#F0D691" d="M359.429 629.841C360.065 625.512 359.557 599.853 359.555 594.237L359.667 519.573C359.626 505.239 358.901 481.612 360.75 468.065L361.102 467.883C362.085 474.699 361.75 490.06 361.686 497.584C361.495 519.748 360.682 540.624 361.752 562.889L361.681 686.658C361.672 700.761 359.944 737.577 362.887 748.962L361.68 750.343C358.234 737.231 359.687 716.024 359.527 701.858C359.258 677.989 359.977 653.742 359.429 629.841Z"/><path fill="#F0D691" d="M400.894 583.009C401.12 586.241 398.914 591.214 399.768 593.127L401.712 591.57C400.546 596.885 400.077 608.162 401.474 613.283C406.344 645.144 419.348 670.235 452.28 679.626C453.552 680.606 454.286 681.153 455.669 682.026C454.399 683.045 454.91 682.77 453.366 683.208C422.114 673.839 411.421 657.074 400.629 627.401C399.453 624.167 399.941 617.423 398.937 614.304C395.736 604.364 399.147 592.99 400.894 583.009Z"/><path fill="#FACC6B" d="M452.28 679.626C482.591 685.936 513.156 675.309 540.399 662.65L541.918 664.653C540.724 665.579 534.979 668.088 533.129 668.886C512.687 677.705 487.205 685.933 464.732 685.02C462.73 684.939 455.518 683.631 453.366 683.208C454.91 682.77 454.399 683.045 455.669 682.026C454.286 681.153 453.552 680.606 452.28 679.626Z"/><path fill="#FACC6B" d="M362.887 748.962C364.713 754.261 365.723 756.25 368.855 760.919C370.67 763.623 376.208 767.854 376.473 768.938C370.458 768.705 363.758 755.698 361.68 750.343L362.887 748.962Z"/><path d="M660.058 591.206C684.384 575.039 708.195 558.07 732.531 542.054C776.477 513.614 821.104 486.24 866.373 459.957C871.173 457.224 876.018 454.506 880.841 451.752C897.098 442.467 913.282 431.3 931.915 442.819C941.64 448.832 945.675 457.159 948.123 467.996C949.074 476.897 948.772 488.519 948.743 497.605L948.629 540.429L948.625 608.148C948.609 619.278 948.915 632.776 948.434 643.701C949.176 650.029 948.598 675.126 948.589 683.324L948.537 720.206C948.524 727.257 948.763 737.39 947.954 744.197C947.334 749.467 945.644 754.555 942.986 759.148C938.419 766.976 930.908 772.65 922.13 774.905C915.703 776.458 908.974 776.233 902.665 774.253C893.162 771.172 857.896 750.429 847.539 744.392C806.55 720.859 766.106 696.389 726.24 670.999C707.049 658.742 685.836 642.829 666.911 631.69L665.128 628.89C669.268 630.374 676.627 637.777 679.742 635.544C679.9 635.118 680.063 634.694 680.231 634.272C682.37 629.001 692.126 627.335 698.467 624.685C694.671 619.441 662.392 602.997 655.082 596.685L655.216 595.131L654.258 594.07C655.936 593.359 658.359 592.052 660.058 591.206Z"/><defs><linearGradient id="gradient_2" gradientUnits="userSpaceOnUse" x1="806.08447" y1="765.46472" x2="825.67188" y2="534.41766"><stop offset="0" stop-color="#C4882F"/><stop offset="1" stop-color="#FBC35E"/></linearGradient></defs><path fill="url(#gradient_2)" d="M902.28 640.366C906.668 634.712 904.871 629.856 911.545 622.586C918.532 614.976 910.197 589.471 910.67 579.562C910.807 576.691 902.839 577.053 902.365 570.278C907.277 566.258 905.744 563.474 909.257 558.416C914.471 550.539 925.06 538.598 935.462 545.871C946.869 553.846 940.51 576.008 940.866 588.124C941.167 598.33 942.523 605.29 943.906 615.131C945.017 623.028 944.13 631.275 945.737 639.343L946.212 636.877C946.689 638.916 947.416 638.932 947.995 641.702L948.434 643.701C949.176 650.029 948.598 675.126 948.589 683.324L948.537 720.206C948.524 727.257 948.763 737.39 947.954 744.197C947.334 749.467 945.644 754.555 942.986 759.148C938.419 766.976 930.908 772.65 922.13 774.905C915.703 776.458 908.974 776.233 902.665 774.253C893.162 771.172 857.896 750.429 847.539 744.392C806.55 720.859 766.106 696.389 726.24 670.999C707.049 658.742 685.836 642.829 666.911 631.69L665.128 628.89C669.268 630.374 676.627 637.777 679.742 635.544C679.9 635.118 680.063 634.694 680.231 634.272C682.37 629.001 692.126 627.335 698.467 624.685C704.039 628.468 710.321 631.928 716.055 635.535C763.432 665.343 852.465 718.274 895.136 653.948C897.938 649.655 900.331 645.108 902.28 640.366Z"/><path fill="#F5C161" d="M660.058 591.206C684.384 575.039 708.195 558.07 732.531 542.054C776.477 513.614 821.104 486.24 866.373 459.957C871.173 457.224 876.018 454.506 880.841 451.752C897.098 442.467 913.282 431.3 931.915 442.819C941.64 448.832 945.675 457.159 948.123 467.996C949.074 476.897 948.772 488.519 948.743 497.605L948.629 540.429L948.625 608.148C948.609 619.278 948.915 632.776 948.434 643.701L947.995 641.702C947.416 638.932 946.689 638.916 946.212 636.877L945.737 639.343C944.13 631.275 945.017 623.028 943.906 615.131C942.523 605.29 941.167 598.33 940.866 588.124C940.51 576.008 946.869 553.846 935.462 545.871C925.06 538.598 914.471 550.539 909.257 558.416C905.744 563.474 907.277 566.258 902.365 570.278C902.839 577.053 910.807 576.691 910.67 579.562C910.197 589.471 918.532 614.976 911.545 622.586C904.871 629.856 906.668 634.712 902.28 640.366C908.949 624.037 910.934 606.173 908.014 588.778C907.448 585.595 906.186 580.023 903.502 578.172C899.012 568.038 897.572 562.315 890.435 553.535C864.958 522.195 829.059 528.031 795.457 539.174L778.678 546.159C770.523 550.788 738.736 566.202 733.974 572.109C723.507 578.544 713.155 585.165 702.923 591.968C698.986 594.554 691.31 599.978 687.521 602.08C685.062 603.855 680.783 606.828 678.581 608.793C675.396 607.893 659.535 597.492 655.216 595.131L654.258 594.07C655.936 593.359 658.359 592.052 660.058 591.206Z"/><path fill="#C77A14" d="M654.258 594.07C655.936 593.359 658.359 592.052 660.058 591.206C665.11 592.855 676.526 601.431 682.396 603.604C682.981 603.82 686.705 602.382 687.521 602.08C685.062 603.855 680.783 606.828 678.581 608.793C675.396 607.893 659.535 597.492 655.216 595.131L654.258 594.07Z"/><path fill="#FACC6B" d="M778.678 546.159L778.701 545.299C783.821 542.294 788.885 537.233 795.457 539.174L778.678 546.159Z"/><path fill="#F0D691" d="M903.502 578.172C906.186 580.023 907.448 585.595 908.014 588.778C910.934 606.173 908.949 624.037 902.28 640.366C900.331 645.108 897.938 649.655 895.136 653.948C852.465 718.274 763.432 665.343 716.055 635.535C710.321 631.928 704.039 628.468 698.467 624.685C694.671 619.441 662.392 602.997 655.082 596.685L655.216 595.131C659.535 597.492 675.396 607.893 678.581 608.793C727.237 637.32 782.791 683.057 842.347 681.51C846.948 682.161 852.206 681.281 856.699 680.135C890.829 671.382 908.468 635.789 907.445 602.575C907.16 593.32 905.802 587.012 903.502 578.172Z"/><path fill="#C77A14" d="M795.457 539.174C829.059 528.031 864.958 522.195 890.435 553.535C897.572 562.315 899.012 568.038 903.502 578.172C905.802 587.012 907.16 593.32 907.445 602.575C908.468 635.789 890.829 671.382 856.699 680.135C852.206 681.281 846.948 682.161 842.347 681.51C852.436 679.216 858.731 679.518 868.772 674.098C921.329 645.684 917.82 551.023 857.476 534.822C816.111 523.717 768.491 552.486 733.974 572.109C738.736 566.202 770.523 550.788 778.678 546.159L795.457 539.174Z"/><path fill="#F5C161" d="M1069.27 728.936L1070.63 729.441C1066.63 741.924 1063.8 753.432 1059.35 766.122C1043.88 810.268 1021.67 851.749 993.493 889.087C990.655 892.886 975.961 911.927 972.696 914.34L971.523 914.066C972.306 913.294 972.706 912.844 973.404 911.993L972.752 911.142C967.015 909.429 965.691 906.562 959.64 911.106L959.272 910.084C968.759 899.306 978.094 890.392 987.61 878.909C1023.3 835.843 1053.37 782.763 1069.27 728.936Z"/><path fill="#9C5B0C" d="M1074.33 711.289C1073.89 716.874 1072.03 723.981 1070.63 729.441L1069.27 728.936C1070.8 723.011 1072.49 717.127 1074.33 711.289Z"/><path fill="#9C5B0C" d="M1066.62 458.565L1067.85 457.971C1069.25 462.533 1070.57 467.119 1071.81 471.728L1070.92 473.12C1069.46 468.276 1068.02 463.424 1066.62 458.565Z"/><path fill="#4E310C" d="M1071.81 471.728C1072.43 474.245 1073.24 476.443 1072.79 478.93C1071.64 477.546 1071.32 474.998 1070.92 473.12L1071.81 471.728Z"/></svg>